<?xml version="1.0" encoding="utf-8"?>
<!-- Generator: Adobe Illustrator 15.0.0, SVG Export Plug-In . SVG Version: 6.00 Build 0)  -->
<!DOCTYPE svg PUBLIC "-//W3C//DTD SVG 1.1//EN" "http://www.w3.org/Graphics/SVG/1.1/DTD/svg11.dtd">
<svg version="1.1" id="Layer_1" xmlns="http://www.w3.org/2000/svg" xmlns:xlink="http://www.w3.org/1999/xlink" x="0px" y="0px"
	 width="26.431px" height="32.617px" viewBox="-6.431 -2.633 26.431 32.617" enable-background="new -6.431 -2.633 26.431 32.617"
	 xml:space="preserve">
<g id="Layer_2">
</g>
<g>
	<g>
		<path fill="#EDEDED" d="M-6.191,13.207c0.041,0.19,0.072,0.391,0.103,0.591C-6.12,13.585-6.153,13.383-6.191,13.207z"/>
		<path fill="#E6E6E6" d="M19.615,12.615c0.328-1.921,0.254-3.933-0.248-5.807c-0.458-1.716-1.188-3.288-2.154-4.693
			c-0.817-1.181-1.771-2.019-2.78-2.897C10.764-3.199,6.387-3.149,2.366-1.668C-1.852,0.659-4.25,5.12-4.375,10.804
			c0,0,0.037,4.324,0.562,8c0.493,3.448,1.188,7.866,1.188,7.866c0,1.446-0.776,2.437-1.71,2.527
			c0.428,0.157,0.777,0.098,2.307-0.177c0.652-0.117,2.864-1.965,3.653-1.967c1.777-0.004,1.262,1.808,3.314,1.986
			c1.152,0.101,2.726-1.879,3.924-1.839c1.796,0.06,2.388,1.174,3.833,1.415c1.114,0.187,1.275-1.401,2.491-1.438
			c1.526-0.046,2.938,2.805,3.939,1.33C20.549,26.417,19.318,14.348,19.615,12.615z"/>
	</g>
	<path fill="#A6A6A6" d="M4.18,28.864c-0.676-0.133-1.166-1.446-1.828-1.672c-0.681-0.231-1.556-0.029-1.871,0.342
		c-0.144,0.17,1.254-0.159,1.581,0.099c0.423,0.333,0.454,0.967,1.094,1.266c0.425,0.198,1.67,0.377,2.188,0.086
		C5.16,29.088,4.627,28.954,4.18,28.864"/>
	<path fill="#303030" d="M5.972,3.346C4.928,2.762,3.607,2.718,2.566,3.332C1.57,3.515,0.773,4.739,0.414,5.742
		c-0.579,1.62-0.475,3.288,0.188,4.847c1.329,3.13,5.15,3.34,7.108,1.009C9.945,8.937,8.6,4.817,5.972,3.346z"/>
	<path fill="#303030" d="M14.409,3.781c-0.632-0.265-1.242-0.185-1.759,0.113c-0.161,0.052-0.313,0.133-0.45,0.249
		c-0.088,0.076-0.176,0.169-0.251,0.275c-1.674,1.386-1.275,4.488-0.155,6.145c1.34,1.983,4.071,1.504,5.142-0.495
		C18.197,7.711,16.364,4.603,14.409,3.781z"/>
	<path fill="#FFFFFF" d="M5.415,6.391C5.201,5.898,4.75,4.944,4.242,4.785C3.95,4.692,3.747,4.751,3.611,4.908
		C3.563,4.922,3.52,4.956,3.491,5.032C3.065,6.154,3.083,8.245,3.719,9.278c0.703,1.142,1.753-0.362,1.912-1.171
		C5.74,7.545,5.637,6.898,5.415,6.391z"/>
	<path fill="#FFFFFF" d="M13.794,4.923c-0.499-0.156-0.734,0.216-0.822,0.743c-0.353,0.872-0.125,2.261,0.079,3.008
		c0.128,0.472,0.363,0.934,0.848,0.863c0.531-0.079,0.623-0.792,0.691-1.287C14.701,7.417,14.742,5.226,13.794,4.923z"/>
	<path fill="#A6A6A6" d="M-2.625,26.674c0,1.657-1.019,2.716-2.125,2.509c-1.859-0.349-0.185-5.31-0.625-7.271
		c-0.439-1.957-0.376-6.672-0.816-8.701c-0.255-1.172-0.289-2.37-0.182-3.567c0.111-1.224,0.532-2.274,0.875-3.419
		c0.011-0.032,0.001-0.055-0.015-0.07c0.488-1.247,1.087-2.42,1.899-3.519c1.429-1.929,3.314-3.229,5.375-4.068
		C1.964-1.516,2.168-1.594,2.373-1.67C-1.849,0.656-4.25,5.12-4.375,10.807c0,0,0.037,4.324,0.562,8
		C-3.32,22.256-2.625,26.674-2.625,26.674z"/>
	<path fill="#A6A6A6" d="M8.797,27.204c0,0,1.151-0.106,2.181,0.675c0.726,0.551,2.169,0.709,2.169,0.709s-1.602,0.311-2.522-0.33
		S8.797,27.204,8.797,27.204z"/>
	<path fill="#A6A6A6" d="M15.343,27.186c0,0,0.956,0.241,1.564,0.836s1.706,0.901,1.634,0.905s-1.166,0.111-1.885-0.342
		S15.343,27.186,15.343,27.186z"/>
</g>
</svg>
