<?xml version="1.0" encoding="utf-8"?>
<!-- Generator: Adobe Illustrator 15.0.0, SVG Export Plug-In . SVG Version: 6.00 Build 0)  -->
<!DOCTYPE svg PUBLIC "-//W3C//DTD SVG 1.1//EN" "http://www.w3.org/Graphics/SVG/1.1/DTD/svg11.dtd">
<svg version="1.1" id="Layer_1" xmlns="http://www.w3.org/2000/svg" xmlns:xlink="http://www.w3.org/1999/xlink" x="0px" y="0px"
	 width="29.625px" height="30.075px" viewBox="0 -0.091 29.625 30.075" enable-background="new 0 -0.091 29.625 30.075"
	 xml:space="preserve">
<g id="Layer_2">
</g>
<g>
	<path fill-rule="evenodd" clip-rule="evenodd" fill="#035D7C" d="M14.715,29.542c8.105,0,14.716-6.61,14.716-14.716
		c0-8.104-6.61-14.715-14.716-14.715S0,6.721,0,14.826C0,22.931,6.609,29.542,14.715,29.542z"/>
	<path fill-rule="evenodd" clip-rule="evenodd" fill="#03A9F4" d="M14.715,0.111c7.798,0,14.178,6.066,14.682,13.736
		c-0.504,7.67-6.884,13.736-14.682,13.736S0.537,21.517,0.033,13.847C0.537,6.177,6.917,0.111,14.715,0.111z"/>
</g>
<g>
	<path fill-rule="evenodd" clip-rule="evenodd" fill="#FFFFFF" d="M8.958,14.947c2.649,0,4.811-2.162,4.811-4.812
		c0-2.651-2.162-4.812-4.811-4.812c-2.65,0-4.812,2.162-4.812,4.812C4.146,12.785,6.308,14.947,8.958,14.947z"/>
	<g>
		<path fill-rule="evenodd" clip-rule="evenodd" fill="#1A1A1A" d="M8.958,6.837c-1.815,0-3.297,1.481-3.297,3.297
			s1.481,3.296,3.297,3.296c1.816,0,3.295-1.48,3.295-3.296S10.774,6.837,8.958,6.837z"/>
		<circle fill-rule="evenodd" clip-rule="evenodd" fill="#FFFFFF" cx="10.996" cy="8.193" r="1.104"/>
	</g>
</g>
<g>
	<path fill-rule="evenodd" clip-rule="evenodd" fill="#FFFFFF" d="M21.39,14.947c2.648,0,4.812-2.161,4.812-4.812
		c0-2.651-2.163-4.812-4.812-4.812c-2.65,0-4.812,2.162-4.812,4.812C16.577,12.785,18.739,14.947,21.39,14.947z"/>
	<g>
		<path fill-rule="evenodd" clip-rule="evenodd" fill="#1A1A1A" d="M21.39,6.838c-1.816,0-3.298,1.481-3.298,3.297
			s1.481,3.296,3.298,3.296c1.815,0,3.296-1.48,3.296-3.296S23.205,6.838,21.39,6.838z"/>
		<circle fill-rule="evenodd" clip-rule="evenodd" fill="#FFFFFF" cx="23.427" cy="8.194" r="1.104"/>
	</g>
</g>
</svg>
