<?xml version="1.0" encoding="utf-8"?>
<!-- Generator: Adobe Illustrator 15.0.0, SVG Export Plug-In . SVG Version: 6.00 Build 0)  -->
<!DOCTYPE svg PUBLIC "-//W3C//DTD SVG 1.1//EN" "http://www.w3.org/Graphics/SVG/1.1/DTD/svg11.dtd">


<svg className='maze' version="1.1" id="Layer_1" xmlns="http://www.w3.org/2000/svg" xmlns:xlink="http://www.w3.org/1999/xlink" x="0px" y="0px"
	 width="560px" height="620px" viewBox="0 0 560 620" enable-background="new 0 0 560 620" xml:space="preserve">
<g id="Layer_2" display="none">

		<image display="inline" overflow="visible" enable-background="new    " width="467" height="586" xlink:href="59D1ED37.png"  transform="matrix(1.2469 0 0 1.2469 -11.0007 -59.998)">
	</image>
</g>
<g>
	<path fill="#3f51b5" d="M387.918,240.796c-0.287-0.731-0.395-0.891-0.404-1.055c-0.014-0.299,0.033-0.6,0.055-0.9
		c0.117,0.082,0.324,0.154,0.336,0.247C387.944,239.45,387.918,239.82,387.918,240.796z"/>
	<path fill="#3f51b5" d="M229.876,87.005L229.876,87.005L229.876,87.005z"/>
	<path fill="#3f51b5" d="M345.496,134.833c0.031-0.06,0.062-0.12,0.096-0.18c0.057,0.036,0.15,0.063,0.158,0.108
		c0.012,0.052-0.051,0.12-0.082,0.181C345.612,134.906,345.553,134.87,345.496,134.833z"/>
	<path fill="#3f51b5" d="M221.166,432.818c-0.05,0.022-0.102,0.067-0.149,0.063c-0.044-0.004-0.084-0.061-0.126-0.093
		c0.051-0.021,0.104-0.063,0.152-0.061C221.086,432.732,221.125,432.787,221.166,432.818z"/>
	<path fill="#3f51b5" d="M423.414,552.516c-0.08,0.084-0.156,0.166-0.25,0.213c-0.047,0.022-0.125-0.021-0.189-0.034
		c0.023-0.089,0.045-0.255,0.07-0.257C423.166,552.432,423.289,552.475,423.414,552.516z"/>
	<polygon fill="#3f51b5" points="501.487,564.322 501.416,564.199 501.561,564.202 	"/>
	<path fill="#3f51b5" d="M345.52,139.223l-0.012,0.011L345.52,139.223z"/>
	<path fill="#3f51b5" d="M402.137,52.911h-65.592c-3.152,0-5.705,2.581-5.705,5.765v25.471c0,3.184,2.553,5.765,5.705,5.765h65.592
		c3.15,0,5.703-2.581,5.703-5.765V58.675C407.84,55.492,405.287,52.911,402.137,52.911z M405.34,83.411c0,2.209-1.791,4-4,4h-64
		c-2.209,0-4-1.791-4-4v-24c0-2.209,1.791-4,4-4h64c2.209,0,4,1.791,4,4V83.411z"/>
	<path fill="#3f51b5" d="M501.387,52.911h-45.592c-3.152,0-5.705,2.581-5.705,5.765v25.471c0,3.184,2.553,5.765,5.705,5.765h45.592
		c3.15,0,5.703-2.581,5.703-5.765V58.675C507.09,55.492,504.537,52.911,501.387,52.911z M504.59,83.411c0,2.209-1.791,4-4,4h-44
		c-2.209,0-4-1.791-4-4v-24c0-2.209,1.791-4,4-4h44c2.209,0,4,1.791,4,4V83.411z"/>
	<path fill="#3f51b5" d="M157.475,89.911h65.592c3.151,0,5.704-2.581,5.704-5.765V58.675c0-3.184-2.553-5.765-5.704-5.765h-65.592
		c-3.151,0-5.704,2.581-5.704,5.765v25.471C151.771,87.33,154.323,89.911,157.475,89.911z M154.271,59.411c0-2.209,1.791-4,4-4h64
		c2.209,0,4,1.791,4,4v24c0,2.209-1.791,4-4,4h-64c-2.209,0-4-1.791-4-4V59.411z"/>
	<path fill="#3f51b5" d="M58.225,89.911h45.592c3.151,0,5.704-2.581,5.704-5.765V58.675c0-3.184-2.553-5.765-5.704-5.765H58.225
		c-3.151,0-5.704,2.581-5.704,5.765v25.471C52.521,87.33,55.073,89.911,58.225,89.911z M55.021,59.411c0-2.209,1.791-4,4-4h44
		c2.209,0,4,1.791,4,4v24c0,2.209-1.791,4-4,4h-44c-2.209,0-4-1.791-4-4V59.411z"/>
	<path fill="#3f51b5" d="M340.369,132.445H220.135c-4.765,0-8.627,3.862-8.627,8.626c0,4.765,3.862,8.627,8.627,8.627h43.218
		c0,0,3.312,0.026,5.5,2.214c2.781,2.781,2.506,5.875,2.506,5.875v43.764c0,4.765,3.862,8.627,8.626,8.627
		c4.765,0,8.626-3.862,8.626-8.627v-43.804c0,0-0.154-2.938,2.201-5.417c2.537-2.672,6.041-2.631,6.041-2.631h43.516
		c4.764,0,8.627-3.862,8.627-8.627C348.996,136.307,345.133,132.445,340.369,132.445z M340.631,147.086h-42.09
		c0,0-5.715-0.137-9.312,3.326c-3.312,3.188-3.084,7.5-3.084,7.5v43.726c0,3.359-2.723,6.083-6.081,6.083
		c-3.358,0-6.081-2.723-6.081-6.083v-43.768c0,0,0.227-4.619-3.171-7.792c-3.364-3.142-7.293-2.993-7.293-2.993h-43.644
		c-3.359,0-6.082-2.722-6.082-6.081c0-3.358,2.723-6.081,6.082-6.081h120.757c3.357,0,6.08,2.723,6.08,6.081
		C346.711,144.364,343.989,147.086,340.631,147.086z"/>
	<path fill="#3f51b5" d="M340.369,370.954H220.135c-4.765,0-8.627,3.862-8.627,8.626c0,4.766,3.862,8.627,8.627,8.627h43.218
		c0,0,3.312,0.027,5.5,2.215c2.781,2.781,2.506,5.874,2.506,5.874v43.764c0,4.765,3.862,8.627,8.626,8.627
		c4.765,0,8.626-3.862,8.626-8.627v-43.804c0,0-0.154-2.938,2.201-5.418c2.537-2.672,6.041-2.631,6.041-2.631h43.516
		c4.764,0,8.627-3.861,8.627-8.627C348.996,374.816,345.133,370.954,340.369,370.954z M340.631,385.596h-42.09
		c0,0-5.715-0.137-9.312,3.326c-3.312,3.188-3.084,7.5-3.084,7.5v43.726c0,3.359-2.723,6.083-6.081,6.083
		c-3.358,0-6.081-2.724-6.081-6.083V396.38c0,0,0.227-4.618-3.171-7.792c-3.364-3.142-7.293-2.992-7.293-2.992h-43.644
		c-3.359,0-6.082-2.723-6.082-6.081s2.723-6.081,6.082-6.081h120.757c3.357,0,6.08,2.723,6.08,6.081
		S343.989,385.596,340.631,385.596z"/>
	<path fill="#3f51b5" d="M61.323,566.981h159.233c4.765,0,8.627-3.862,8.627-8.626c0-4.766-3.862-8.627-8.627-8.627h-43.218
		c0,0-3.312-0.027-5.5-2.215c-2.781-2.781-2.506-5.874-2.506-5.874v-43.764c0-4.765-3.862-8.627-8.626-8.627
		c-4.765,0-8.627,3.862-8.627,8.627v43.804c0,0,0.154,2.938-2.2,5.418c-2.538,2.672-6.041,2.631-6.041,2.631H61.323
		c-4.765,0-8.627,3.861-8.627,8.627C52.697,563.119,56.559,566.981,61.323,566.981z M61.061,552.34h81.091
		c0,0,5.714,0.137,9.312-3.326c3.312-3.188,3.083-7.5,3.083-7.5v-43.726c0-3.359,2.723-6.083,6.081-6.083s6.081,2.724,6.081,6.083
		v43.768c0,0-0.227,4.618,3.171,7.792c3.364,3.142,7.293,2.992,7.293,2.992h43.644c3.359,0,6.082,2.723,6.082,6.081
		s-2.723,6.081-6.082,6.081H61.061c-3.356,0-6.08-2.723-6.08-6.081S57.704,552.34,61.061,552.34z"/>
	<path fill="#3f51b5" d="M507.326,558.355c0-4.766-3.861-8.627-8.627-8.627h-82.516c0,0-3.502,0.041-6.041-2.631
		c-2.354-2.479-2.199-5.418-2.199-5.418v-43.804c0-4.765-3.863-8.627-8.627-8.627s-8.627,3.862-8.627,8.627v43.764
		c0,0,0.275,3.093-2.506,5.874c-2.188,2.188-5.5,2.215-5.5,2.215h-43.217c-4.766,0-8.627,3.861-8.627,8.627
		c0,4.764,3.861,8.626,8.627,8.626h159.232C503.465,566.981,507.326,563.119,507.326,558.355z M505.043,558.421
		c0,3.358-2.725,6.081-6.08,6.081H339.205c-3.359,0-6.082-2.723-6.082-6.081s2.723-6.081,6.082-6.081h43.645
		c0,0,3.93,0.149,7.293-2.992c3.398-3.174,3.172-7.792,3.172-7.792v-43.768c0-3.359,2.723-6.083,6.08-6.083
		c3.359,0,6.082,2.724,6.082,6.083v43.726c0,0-0.23,4.312,3.082,7.5c3.6,3.463,9.312,3.326,9.312,3.326h81.092
		C502.319,552.34,505.043,555.062,505.043,558.421z"/>
	<path fill="#3f51b5" d="M340.369,490.143H220.135c-4.765,0-8.627,3.862-8.627,8.626c0,4.766,3.862,8.627,8.627,8.627h43.218
		c0,0,3.312,0.027,5.5,2.215c2.781,2.781,2.506,5.874,2.506,5.874v43.764c0,4.765,3.862,8.627,8.626,8.627
		c4.765,0,8.626-3.862,8.626-8.627v-43.804c0,0-0.154-2.938,2.201-5.418c2.537-2.672,6.041-2.631,6.041-2.631h43.516
		c4.764,0,8.627-3.861,8.627-8.627C348.996,494.005,345.133,490.143,340.369,490.143z M340.631,504.784h-42.09
		c0,0-5.715-0.137-9.312,3.326c-3.312,3.188-3.084,7.5-3.084,7.5v43.726c0,3.359-2.723,6.083-6.081,6.083
		c-3.358,0-6.081-2.724-6.081-6.083v-43.768c0,0,0.227-4.618-3.171-7.792c-3.364-3.142-7.293-2.992-7.293-2.992h-43.644
		c-3.359,0-6.082-2.723-6.082-6.081s2.723-6.081,6.082-6.081h120.757c3.357,0,6.08,2.723,6.08,6.081
		S343.989,504.784,340.631,504.784z"/>
	<path fill="#3f51b5" d="M152.142,140.363v120.233c0,4.765,3.862,8.627,8.626,8.627c4.765,0,8.627-3.862,8.627-8.627v-43.218
		c0,0,0.026-3.312,2.214-5.5c2.781-2.781,5.875-2.506,5.875-2.506h43.764c4.765,0,8.627-3.862,8.627-8.626
		c0-4.765-3.862-8.627-8.627-8.627h-43.804c0,0-2.938,0.154-5.417-2.2c-2.672-2.538-2.631-6.041-2.631-6.041v-43.516
		c0-4.765-3.862-8.627-8.627-8.627C156.005,131.736,152.142,135.599,152.142,140.363z M166.783,140.101v42.091
		c0,0-0.137,5.714,3.326,9.312c3.188,3.312,7.5,3.083,7.5,3.083h43.726c3.359,0,6.083,2.723,6.083,6.081s-2.723,6.081-6.083,6.081
		h-43.768c0,0-4.619-0.227-7.792,3.171c-3.142,3.364-2.993,7.293-2.993,7.293v43.644c0,3.359-2.722,6.082-6.081,6.082
		c-3.358,0-6.081-2.723-6.081-6.082V140.101c0-3.356,2.723-6.08,6.081-6.08C164.061,134.021,166.783,136.744,166.783,140.101z"/>
	<path fill="#3f51b5" d="M407.862,260.868V140.634c0-4.765-3.863-8.627-8.627-8.627c-4.766,0-8.627,3.862-8.627,8.627v43.218
		c0,0-0.027,3.312-2.215,5.5c-2.781,2.781-5.873,2.506-5.873,2.506h-43.764c-4.766,0-8.627,3.862-8.627,8.626
		c0,4.765,3.861,8.627,8.627,8.627h43.803c0,0,2.939-0.154,5.418,2.2c2.672,2.538,2.631,6.041,2.631,6.041v43.516
		c0,4.765,3.861,8.627,8.627,8.627C403.998,269.495,407.862,265.632,407.862,260.868z M393.219,261.13V219.04
		c0,0,0.137-5.714-3.326-9.312c-3.188-3.312-7.5-3.083-7.5-3.083h-43.725c-3.359,0-6.084-2.723-6.084-6.081s2.725-6.081,6.084-6.081
		h43.768c0,0,4.617,0.227,7.791-3.171c3.143-3.364,2.992-7.293,2.992-7.293v-43.644c0-3.359,2.723-6.082,6.082-6.082
		c3.357,0,6.08,2.723,6.08,6.082V261.13c0,3.356-2.723,6.08-6.08,6.08C395.942,267.21,393.219,264.487,393.219,261.13z"/>
	<path fill="#3f51b5" d="M499.166,132.445h-41.234c-4.764,0-8.627,3.862-8.627,8.626c0,4.765,3.863,8.627,8.627,8.627h41.234
		c4.764,0,8.627-3.862,8.627-8.627C507.793,136.307,503.93,132.445,499.166,132.445z M498.66,147.555h-40.238
		c-3.582,0-6.484-2.903-6.484-6.483c0-3.581,2.902-6.484,6.484-6.484h40.238c3.582,0,6.484,2.903,6.484,6.484
		C505.145,144.652,502.242,147.555,498.66,147.555z"/>
	<path fill="#3f51b5" d="M220.637,430.434h-60.233c-4.765,0-8.627,3.861-8.627,8.626s3.862,8.627,8.627,8.627h60.233
		c4.765,0,8.627-3.862,8.627-8.627S225.402,430.434,220.637,430.434z M220.133,445.543h-59.239c-3.581,0-6.483-2.902-6.483-6.482
		c0-3.582,2.902-6.484,6.483-6.484h59.239c3.581,0,6.483,2.902,6.483,6.484C226.616,442.641,223.714,445.543,220.133,445.543z"/>
	<path fill="#3f51b5" d="M399.371,430.434h-60.232c-4.766,0-8.627,3.861-8.627,8.626s3.861,8.627,8.627,8.627h60.232
		c4.766,0,8.627-3.862,8.627-8.627S404.137,430.434,399.371,430.434z M398.867,445.543h-59.24c-3.58,0-6.482-2.902-6.482-6.482
		c0-3.582,2.902-6.484,6.482-6.484h59.24c3.58,0,6.482,2.902,6.482,6.484C405.35,442.641,402.448,445.543,398.867,445.543z"/>
	<path fill="#3f51b5" d="M390.744,319.805v60.232c0,4.766,3.861,8.627,8.627,8.627c4.764,0,8.627-3.861,8.627-8.627v-60.232
		c0-4.766-3.863-8.627-8.627-8.627C394.606,311.178,390.744,315.039,390.744,319.805z M405.854,320.309v59.24
		c0,3.58-2.902,6.482-6.482,6.482c-3.582,0-6.484-2.902-6.484-6.482v-59.24c0-3.58,2.902-6.482,6.484-6.482
		C402.951,313.826,405.854,316.729,405.854,320.309z"/>
	<path fill="#3f51b5" d="M152.184,319.805v60.232c0,4.766,3.861,8.627,8.626,8.627s8.627-3.861,8.627-8.627v-60.232
		c0-4.766-3.862-8.627-8.627-8.627S152.184,315.039,152.184,319.805z M167.293,320.309v59.24c0,3.58-2.902,6.482-6.482,6.482
		c-3.582,0-6.484-2.902-6.484-6.482v-59.24c0-3.58,2.902-6.482,6.484-6.482C164.391,313.826,167.293,316.729,167.293,320.309z"/>
	<path fill="#3f51b5" d="M101.637,132.445H60.404c-4.765,0-8.627,3.862-8.627,8.626c0,4.765,3.862,8.627,8.627,8.627h41.233
		c4.765,0,8.627-3.862,8.627-8.627C110.264,136.307,106.402,132.445,101.637,132.445z M101.133,147.555H60.893
		c-3.581,0-6.483-2.903-6.483-6.483c0-3.581,2.902-6.484,6.483-6.484h40.239c3.581,0,6.483,2.903,6.483,6.484
		C107.616,144.652,104.714,147.555,101.133,147.555z"/>
	<path fill="#3f51b5" d="M109.815,439.06c0-4.765-3.799-8.626-8.486-8.626h-40.56c-4.687,0-8.486,3.861-8.486,8.626
		s3.799,8.627,8.486,8.627h21.779c0,0,4.739-0.003,7.324,2.921c2.857,3.23,2.69,7.146,2.69,7.146v40.979
		c0,4.687,3.861,8.486,8.626,8.486s8.627-3.8,8.627-8.486v-58.56c0-0.185-0.016-0.365-0.028-0.548
		C109.799,439.438,109.815,439.251,109.815,439.06z M107.357,439.914v59.02c0,3.363-2.771,6.089-6.19,6.089
		c-3.419,0-6.19-2.726-6.19-6.089v-41.104c0,0,0.209-6.084-3.166-9.417c-3.104-3.065-9.25-3.107-9.25-3.107H61.164
		c-3.363,0-6.089-2.771-6.089-6.19s2.726-6.188,6.089-6.188h40.104c3.363,0,6.089,2.77,6.089,6.188c0,0.138-0.012,0.271-0.02,0.406
		C107.345,439.651,107.357,439.781,107.357,439.914z"/>
	<path fill="#3f51b5" d="M450.199,439.703c-0.014,0.183-0.029,0.363-0.029,0.548v58.56c0,4.687,3.863,8.486,8.627,8.486
		c4.766,0,8.627-3.8,8.627-8.486v-40.979c0,0-0.168-3.915,2.689-7.146c2.586-2.924,7.324-2.921,7.324-2.921h21.779
		c4.686,0,8.484-3.862,8.484-8.627s-3.799-8.626-8.484-8.626h-40.561c-4.688,0-8.486,3.861-8.486,8.626
		C450.17,439.329,450.186,439.516,450.199,439.703z M452.649,439.599c-0.008-0.135-0.02-0.269-0.02-0.406
		c0-3.419,2.725-6.188,6.088-6.188h40.105c3.361,0,6.088,2.77,6.088,6.188s-2.727,6.19-6.088,6.19h-21.398
		c0,0-6.146,0.042-9.25,3.107c-3.375,3.333-3.166,9.417-3.166,9.417v41.104c0,3.363-2.77,6.089-6.189,6.089
		c-3.418,0-6.189-2.726-6.189-6.089v-59.02C452.629,439.859,452.641,439.729,452.649,439.599z"/>
	<g>
		<path fill="#3f51b5" d="M339.184,251.693h-40.596v9.723h39.734v57.527H221.603v-57.527h39.719v-9.723h-40.626
			c-4.971,0-9,4.029-9,9v59.25c0,4.971,4.029,9,9,9h118.488c4.971,0,9-4.029,9-9v-59.25
			C348.184,255.723,344.155,251.693,339.184,251.693z M345.895,318.875c0,4.454-2.186,7.193-7.35,7.193H221.812
			c-4.085,0-7.443-1.786-7.443-6.699v-59.332c0-3,2.266-5.785,6.235-5.785h38.282v4.633h-39.664v62.277H340.94v-62.277h-39.852
			v-4.633h37.596c3.527,0,7.211,1.302,7.211,6.64V318.875z"/>
		<path fill="#3f51b5" d="M344.311,262.812l-0.016,0.014c0.035,0.042,0.07,0.083,0.105,0.125
			C344.371,262.905,344.34,262.859,344.311,262.812z"/>
	</g>
	<g>
		<g>
			<g>
				<path fill="#3f51b5" d="M107.157,201.054v59.332c0,3-2.266,5.785-6.234,5.785H1.397v2.559h99.433c4.971,0,9-4.029,9-9v-59.25
					c0-4.971-4.029-8.694-9-8.694H20.518v2.569h79.195C103.8,194.354,107.157,196.141,107.157,201.054z"/>
				<polygon fill="#3f51b5" points="99.923,259.006 1.397,259.006 1.397,261.537 102.305,261.537 102.305,199.261 20.518,199.261
					20.518,201.754 99.923,201.738 				"/>
			</g>
			<g>
				<path fill="#3f51b5" d="M18.685,194.354h1.833v-2.569h-0.997c-4.503,0-9.022-3.443-9.022-9.423V20.78H8.064v162.122
					C8.064,187.946,11.894,194.354,18.685,194.354z"/>
			</g>
			<g>
				<path fill="#3f51b5" d="M15.231,201.729h5.287v-2.469h-4.449c-6.421,0-13.024-5.59-13.024-14.523V20.78H0.61v164.497
					C0.61,194.495,7.396,201.729,15.231,201.729z"/>
			</g>
			<g>
				<path fill="#3f51b5" d="M7.985,18.947v1.833h2.569v-0.997c0-4.503,3.443-9.022,9.423-9.022h242.241V8.326H19.437
					C14.393,8.326,7.985,12.156,7.985,18.947z"/>
			</g>
			<g>
				<path fill="#3f51b5" d="M0.61,15.493v5.287h2.469v-4.449c0-6.421,5.59-13.024,14.523-13.024h263.617V0.872H17.062
					C7.844,0.872,0.61,7.658,0.61,15.493z"/>
			</g>
		</g>
		<path fill="#3f51b5" d="M262.219,10.761c0,0,4.353-0.102,6.891,2.571c2.354,2.479,2.2,5.417,2.2,5.417v62.804
			c0,4.675,3.72,8.471,8.36,8.613v-2.452c-3.271-0.1-5.894-2.777-5.894-6.073V18.915c0,0,0.229-4.312-3.083-7.5
			c-3.599-3.463-9.312-3.088-9.312-3.088h-0.085c0.05,0.872,0.101,1.504,0.152,2.375L262.219,10.761z"/>
	</g>
	<g>
		<g>
			<g>
				<path fill="#3f51b5" d="M452.823,201.054v59.332c0,3,2.266,5.785,6.234,5.785h99.525v2.559h-99.432c-4.971,0-9-4.029-9-9v-59.25
					c0-4.971,4.029-8.694,9-8.694h80.311v2.569h-79.195C456.18,194.354,452.823,196.141,452.823,201.054z"/>
				<polygon fill="#3f51b5" points="460.057,259.006 558.582,259.006 558.582,261.537 457.674,261.537 457.674,199.261
					539.461,199.261 539.461,201.754 460.057,201.738 				"/>
			</g>
			<g>
				<path fill="#3f51b5" d="M541.295,194.354h-1.834v-2.569h0.998c4.502,0,9.021-3.443,9.021-9.423V20.78h2.436v162.122
					C551.916,187.946,548.086,194.354,541.295,194.354z"/>
			</g>
			<g>
				<path fill="#3f51b5" d="M544.748,201.729h-5.287v-2.469h4.449c6.422,0,13.025-5.59,13.025-14.523V20.78h2.434v164.497
					C559.369,194.495,552.584,201.729,544.748,201.729z"/>
			</g>
			<g>
				<path fill="#3f51b5" d="M551.994,18.947v1.833h-2.568v-0.997c0-4.503-3.443-9.022-9.424-9.022h-242.24V8.326h242.781
					C545.586,8.326,551.994,12.156,551.994,18.947z"/>
			</g>
			<g>
				<path fill="#3f51b5" d="M559.369,15.493v5.287h-2.469v-4.449c0-6.421-5.59-13.024-14.523-13.024H278.761V0.872h264.157
					C552.135,0.872,559.369,7.658,559.369,15.493z"/>
			</g>
		</g>
		<path fill="#3f51b5" d="M298.6,8.326c0,0-5.715-0.375-9.312,3.088c-3.312,3.188-3.084,7.5-3.084,7.5v62.726
			c0,3.261-2.568,5.912-5.79,6.065h-0.92v2.456h0.816v0.005c0.021,0,0.04-0.004,0.061-0.005h0.062v-0.005
			c4.583-0.205,8.238-3.97,8.238-8.604V18.749c0,0-0.154-2.938,2.201-5.417c2.537-2.672,6.891-2.571,6.891-2.571l0.77-0.06
			c0.053-0.87,0.102-1.503,0.152-2.375H298.6z"/>
	</g>
	<g>
		<g>
			<path fill="#3f51b5" d="M452.844,378.972V319.64c0-3,2.266-5.785,6.234-5.785h99.525v-2.559H459.17c-4.971,0-9,4.029-9,9v59.25
				c0,4.971,4.029,8.694,9,8.694h80.312v-2.569h-79.195C456.201,385.671,452.844,383.885,452.844,378.972z"/>
			<polygon fill="#3f51b5" points="460.078,321.02 558.604,321.02 558.604,318.488 457.696,318.488 457.696,380.765
				539.483,380.765 539.483,378.271 460.078,378.287 			"/>
		</g>
		<g>
			<rect x="549.502" y="517.413" fill="#3f51b5" width="2.434" height="83.546"/>
			<path fill="#3f51b5" d="M549.502,480.413h2.434v-83.29c0-5.044-3.83-11.452-10.621-11.452h-1.832v2.569h0.996
				c4.504,0,9.023,3.443,9.023,9.423V480.413z"/>
		</g>
		<g>
			<path fill="#3f51b5" d="M544.77,378.296h-5.287v2.469h4.449c6.42,0,13.023,5.59,13.023,14.523v207.957h2.436V394.748
				C559.391,385.53,552.604,378.296,544.77,378.296z"/>
		</g>
		<g>
			<path fill="#3f51b5" d="M518.426,492.986h22.768c0,0,4.617,0.227,7.791-3.17c3.143-3.365,2.992-7.295,2.992-7.295v-2.859h-2.475
				l-0.066,2.719c0,0-0.098,3.289-2.285,5.477c-2.781,2.781-5.873,2.506-5.873,2.506h-22.764c-4.766,0-8.627,3.861-8.627,8.625
				c0,4.766,3.861,8.627,8.627,8.627h22.803c0,0,2.939-0.154,5.418,2.201c2.672,2.537,2.768,6.064,2.768,6.064v1.865h2.475v-0.201
				c0,0,0.137-5.715-3.326-9.312c-3.188-3.312-7.5-3.084-7.5-3.084h-22.725c-3.359,0-6.084-2.723-6.084-6.08
				C512.342,495.709,515.067,492.986,518.426,492.986z"/>
		</g>
		<g>
			<path fill="#3f51b5" d="M551.936,601.053v-1.833l-2.381,0.031v0.997c0,4.503-3.443,9.022-9.424,9.022H278.783v2.435h261.889
				C545.715,611.705,551.936,607.844,551.936,601.053z"/>
		</g>
		<g>
			<path fill="#3f51b5" d="M559.391,604.507v-5.287h-2.469v4.449c0,6.421-5.59,13.024-14.523,13.024H278.783v2.435H542.94
				C552.156,619.128,559.391,612.342,559.391,604.507z"/>
		</g>
	</g>
	<g>
		<g>
			<path fill="#3f51b5" d="M107.22,378.972V319.64c0-3-2.266-5.785-6.234-5.785H1.461v-2.559h99.433c4.971,0,9,4.029,9,9v59.25
				c0,4.971-4.029,8.694-9,8.694H20.582v-2.569h79.195C103.863,385.671,107.22,383.885,107.22,378.972z"/>
			<polygon fill="#3f51b5" points="99.986,321.02 1.461,321.02 1.461,318.488 102.369,318.488 102.369,380.765 20.582,380.765
				20.582,378.271 99.986,378.287 			"/>
		</g>
		<g>
			<rect x="8.128" y="517.413" fill="#3f51b5" width="2.435" height="83.546"/>
			<path fill="#3f51b5" d="M10.562,480.413H8.128v-83.29c0-5.044,3.83-11.452,10.621-11.452h1.833v2.569h-0.997
				c-4.503,0-9.022,3.443-9.022,9.423V480.413z"/>
		</g>
		<g>
			<path fill="#3f51b5" d="M15.295,378.296h5.287v2.469h-4.449c-6.421,0-13.024,5.59-13.024,14.523v207.957H0.674V394.748
				C0.674,385.53,7.46,378.296,15.295,378.296z"/>
		</g>
		<g>
			<path fill="#3f51b5" d="M41.638,492.986H18.871c0,0-4.617,0.227-7.791-3.17c-3.143-3.365-2.992-7.295-2.992-7.295v-2.859h2.475
				l0.065,2.719c0,0,0.099,3.289,2.286,5.477c2.781,2.781,5.873,2.506,5.873,2.506h22.764c4.766,0,8.627,3.861,8.627,8.625
				c0,4.766-3.861,8.627-8.627,8.627H18.748c0,0-2.939-0.154-5.418,2.201c-2.672,2.537-2.768,6.064-2.768,6.064v1.865H8.088v-0.201
				c0,0-0.137-5.715,3.326-9.312c3.188-3.312,7.5-3.084,7.5-3.084h22.725c3.359,0,6.084-2.723,6.084-6.08
				C47.722,495.709,44.998,492.986,41.638,492.986z"/>
		</g>
		<g>
			<path fill="#3f51b5" d="M8.128,601.053v-1.833l2.381,0.031v0.997c0,4.503,3.443,9.022,9.424,9.022h261.349v2.435H19.391
				C14.348,611.705,8.128,607.844,8.128,601.053z"/>
		</g>
		<g>
			<path fill="#3f51b5" d="M0.674,604.507v-5.287h2.469v4.449c0,6.421,5.59,13.024,14.523,13.024h263.616v2.435H17.125
				C7.908,619.128,0.674,612.342,0.674,604.507z"/>
		</g>
	</g>
</g>
</svg>
