<?xml version="1.0" encoding="utf-8"?>
<!-- Generator: Adobe Illustrator 15.0.0, SVG Export Plug-In . SVG Version: 6.00 Build 0)  -->
<!DOCTYPE svg PUBLIC "-//W3C//DTD SVG 1.1//EN" "http://www.w3.org/Graphics/SVG/1.1/DTD/svg11.dtd">
<svg version="1.1" id="Layer_1" xmlns="http://www.w3.org/2000/svg" xmlns:xlink="http://www.w3.org/1999/xlink" x="0px" y="0px"
	 width="20px" height="20px" viewBox="-4.5 25.5 20 20" enable-background="new -4.5 25.5 20 20" xml:space="preserve">
<g id="Layer_2">
</g>
<g>
	<path fill-rule="evenodd" clip-rule="evenodd" d="M-2.732,45.496c-0.031-1.228-0.042-2.433,0.523-3.062
		c-0.421-0.364-0.915-0.652-1.307-1.047c0.046-3.303-0.095-6.793,0.074-9.972c0.454-2.896,2.08-4.621,4.52-5.529
		c1.19-0.471,2.961-0.373,4.632-0.373c1.701,0,3.434-0.064,4.561,0.485c2.342,1.006,3.909,2.787,4.257,5.79c0,3.076,0,6.151,0,9.227
		c-0.498,0.501-1.121,0.872-1.682,1.309c0.596,0.661,0.653,1.861,0.598,3.174c-2.366,0-4.73,0-7.097,0
		c0.024-0.71-0.074-1.541,0.112-2.09c-0.649-0.087-1.458-0.014-2.168-0.039c0.048,0.508,0.138,1.474,0.038,2.129
		C1.975,45.496-0.378,45.496-2.732,45.496z M5.673,26.408c-2.267-0.069-3.875-0.044-5.267,0.708c-1.26,0.684-2.114,1.76-2.727,3.213
		c-0.123,0.475-0.244,0.953-0.298,1.495c0,3.038,0,6.075,0,9.115c0.632,0.575,1.307,1.108,2.054,1.568c2.428,0,4.856,0,7.285,0
		c0.479-0.37,0.793-0.899,1.42-1.121c0.4-0.156,0.83-0.288,1.42-0.26c0.011,0,0.023,0,0.036,0c1.106-0.061,2.013,0.078,2.578,0.56
		c0.527-0.358,1.074-0.694,1.494-1.158c-0.102-3.174,0.216-6.766-0.187-9.637c-0.725-2.538-2.41-4.116-5.305-4.483
		C7.343,26.408,6.51,26.408,5.673,26.408z M10.417,42.022c-2.142-0.188-3.302,0.606-3.175,2.689c1.421,0,2.841,0,4.26,0
		c0.36,0,0.722,0,1.082,0C12.634,43.044,11.918,42.14,10.417,42.022z M2.312,43.406c-1.071,0-2.142,0-3.213,0
		c-0.251-0.099-0.363-0.335-0.635-0.413c-0.265,0.422-0.373,0.999-0.336,1.719c1.432,0,2.863,0,4.295,0c0.349,0,0.697,0,1.045,0
		c0.018-0.489-0.001-0.942-0.111-1.306C3.009,43.406,2.66,43.406,2.312,43.406z"/>
	<path fill-rule="evenodd" clip-rule="evenodd" fill="#006838" d="M5.673,26.408c0.837,0,1.67,0,2.504,0
		c2.895,0.367,4.58,1.945,5.305,4.483c0.402,2.872,0.085,6.463,0.187,9.637c-0.42,0.464-0.967,0.8-1.494,1.158
		c-0.565-0.481-1.472-0.62-2.578-0.56c0-3.126,0-6.251,0-9.376c-0.338-2.687-1.735-4.316-3.811-5.267
		c-0.046-0.002-0.052-0.048-0.112-0.038C5.673,26.433,5.673,26.421,5.673,26.408z"/>
	<path fill-rule="evenodd" clip-rule="evenodd" d="M2.535,30.891c3.057-0.005,4.507,1.595,4.968,4.185
		c-0.033,3.15-1.615,4.758-4.519,5.041c-2.737-0.227-4.173-1.754-4.52-4.37c0.088-2.85,1.519-4.358,3.997-4.819
		C2.504,30.935,2.527,30.92,2.535,30.891z M4.216,31.975c-0.363-0.122-0.774-0.197-1.232-0.224c-0.83,0.03-1.424,0.292-1.98,0.598
		c-0.388,0.309-0.736,0.658-1.045,1.045c-1.319,1.906-0.262,4.888,1.458,5.453c1.84,1.018,4.194-0.173,4.818-1.606
		c0.212-0.523,0.405-1.065,0.412-1.792c-0.134-1.771-0.974-2.837-2.317-3.399c-0.002-0.022-0.005-0.044-0.038-0.037
		C4.253,32.011,4.247,31.981,4.216,31.975z"/>
	<path fill-rule="evenodd" clip-rule="evenodd" d="M1.34,34.103c0.326-0.014,0.618,0.006,0.858,0.076
		c0.508,0.264,0.871,0.673,0.935,1.38c-0.016,0.497-0.202,0.823-0.412,1.123c-0.283,0.225-0.596,0.425-1.083,0.447
		c-0.829-0.068-1.25-0.541-1.457-1.232c-0.057-0.654,0.143-1.053,0.411-1.382c0.197-0.15,0.393-0.303,0.672-0.374
		C1.309,34.146,1.332,34.132,1.34,34.103z"/>
	<path fill-rule="evenodd" clip-rule="evenodd" fill="#006838" d="M10.417,42.022c1.501,0.117,2.217,1.021,2.167,2.689
		c-0.36,0-0.722,0-1.082,0c0.103-1.347-0.347-2.144-1.085-2.652C10.417,42.046,10.417,42.034,10.417,42.022z"/>
	<path fill-rule="evenodd" clip-rule="evenodd" fill="#006838" d="M2.312,43.406c0.349,0,0.698,0,1.046,0
		c0.11,0.363,0.129,0.816,0.111,1.306c-0.348,0-0.696,0-1.045,0C2.438,44.225,2.416,43.773,2.312,43.406z"/>
	<path fill-rule="evenodd" clip-rule="evenodd" fill="#37B34A" d="M9.596,41.127c-0.013,0-0.025,0-0.036,0
		c-0.59-0.028-1.02,0.104-1.42,0.26c-0.627,0.222-0.941,0.751-1.42,1.121c-2.429,0-4.856,0-7.285,0
		c-0.747-0.46-1.422-0.993-2.054-1.568c0-3.04,0-6.077,0-9.115c0.055-0.542,0.175-1.02,0.298-1.495
		c0.613-1.453,1.467-2.529,2.727-3.213c1.392-0.752,3-0.777,5.267-0.708c0,0.013,0,0.024,0,0.037
		c0.061-0.01,0.066,0.036,0.112,0.038c2.075,0.951,3.473,2.58,3.811,5.267C9.596,34.876,9.596,38.001,9.596,41.127z M2.46,30.928
		c-2.478,0.46-3.908,1.969-3.997,4.819c0.347,2.616,1.783,4.144,4.52,4.37c2.904-0.283,4.486-1.891,4.519-5.041
		c-0.461-2.59-1.911-4.19-4.968-4.185C2.527,30.92,2.504,30.935,2.46,30.928z"/>
	<path fill-rule="evenodd" clip-rule="evenodd" fill="#37B34A" d="M2.423,44.712c-1.432,0-2.864,0-4.295,0
		c-0.037-0.72,0.071-1.297,0.336-1.719c0.272,0.078,0.383,0.314,0.635,0.413c1.071,0,2.142,0,3.213,0
		C2.416,43.773,2.438,44.225,2.423,44.712z"/>
	<path fill-rule="evenodd" clip-rule="evenodd" fill="#FFFFFF" d="M4.291,32.011c0.032-0.007,0.036,0.015,0.038,0.037
		c1.343,0.562,2.183,1.628,2.317,3.399c-0.007,0.727-0.2,1.269-0.412,1.792c-0.624,1.434-2.978,2.624-4.818,1.606
		c-1.719-0.565-2.776-3.547-1.458-5.453c0.309-0.388,0.658-0.736,1.045-1.045c0.556-0.306,1.15-0.567,1.98-0.598
		c0.458,0.027,0.87,0.102,1.232,0.224C4.247,31.981,4.253,32.011,4.291,32.011z M1.265,34.141c-0.279,0.07-0.475,0.223-0.672,0.374
		c-0.269,0.329-0.468,0.728-0.411,1.382c0.207,0.691,0.628,1.164,1.457,1.232c0.487-0.022,0.8-0.223,1.083-0.447
		c0.21-0.3,0.396-0.626,0.412-1.123c-0.064-0.708-0.426-1.117-0.935-1.38c-0.241-0.07-0.533-0.09-0.858-0.076
		C1.332,34.132,1.309,34.146,1.265,34.141z"/>
	<path fill-rule="evenodd" clip-rule="evenodd" fill="#37B34A" d="M11.502,44.712c-1.419,0-2.839,0-4.26,0
		c-0.127-2.083,1.033-2.877,3.175-2.689c0,0.012,0,0.023,0,0.037C11.155,42.568,11.604,43.365,11.502,44.712z"/>
</g>
</svg>
