<?xml version="1.0" encoding="utf-8"?>
<!-- Generator: Adobe Illustrator 15.0.0, SVG Export Plug-In . SVG Version: 6.00 Build 0)  -->
<!DOCTYPE svg PUBLIC "-//W3C//DTD SVG 1.1//EN" "http://www.w3.org/Graphics/SVG/1.1/DTD/svg11.dtd">
<svg version="1.1" id="Layer_1" xmlns="http://www.w3.org/2000/svg" xmlns:xlink="http://www.w3.org/1999/xlink" x="0px" y="0px"
	 width="20px" height="29.984px" viewBox="0 0 20 29.984" enable-background="new 0 0 20 29.984" xml:space="preserve">
<g id="Layer_2">
</g>
<polygon fill="#006838" points="20,8.849 4,8.849 0,-0.001 16,-0.001 "/>
<polygon fill="#257F3C" points="4,8.849 4,29.986 0,21.136 0,-0.001 "/>
<rect x="4" y="8.849" fill="#2AAD30" width="16" height="21.137"/>
<g>
	<path d="M15.311,9.611c2.849-0.003,4.2,1.489,4.631,3.905c-0.029,2.938-1.506,4.439-4.213,4.705
		c-2.555-0.214-3.893-1.638-4.218-4.081c0.084-2.657,1.416-4.064,3.729-4.496C15.279,9.654,15.301,9.639,15.311,9.611z
		 M16.876,10.624c-0.336-0.114-0.721-0.184-1.147-0.209c-0.775,0.028-1.329,0.271-1.849,0.557c-0.362,0.288-0.688,0.616-0.973,0.977
		c-1.232,1.776-0.247,4.558,1.359,5.089c1.716,0.945,3.912-0.164,4.495-1.505c0.198-0.484,0.379-0.992,0.383-1.669
		c-0.125-1.653-0.907-2.646-2.161-3.17c-0.003-0.021-0.006-0.042-0.037-0.034C16.909,10.658,16.903,10.628,16.876,10.624z"/>
	<path d="M14.193,12.609c0.305-0.013,0.575,0.007,0.8,0.071c0.475,0.247,0.813,0.626,0.873,1.288
		c-0.014,0.462-0.189,0.766-0.384,1.045c-0.264,0.21-0.556,0.4-1.009,0.418c-0.774-0.063-1.169-0.504-1.36-1.149
		c-0.053-0.609,0.133-0.981,0.385-1.288c0.184-0.141,0.365-0.284,0.624-0.351C14.166,12.65,14.185,12.635,14.193,12.609z"/>
	<path fill="#FFFFFF" d="M16.946,10.658c0.03-0.007,0.033,0.011,0.036,0.032c1.255,0.526,2.036,1.52,2.161,3.172
		c-0.007,0.677-0.187,1.184-0.381,1.669c-0.586,1.34-2.783,2.451-4.499,1.501c-1.604-0.528-2.589-3.311-1.358-5.087
		c0.286-0.364,0.612-0.687,0.975-0.975c0.521-0.286,1.071-0.529,1.847-0.557c0.429,0.023,0.813,0.095,1.149,0.208
		C16.903,10.628,16.909,10.658,16.946,10.658z M14.122,12.643c-0.257,0.066-0.441,0.208-0.624,0.351
		c-0.252,0.305-0.438,0.678-0.385,1.288c0.191,0.646,0.588,1.086,1.36,1.149c0.455-0.019,0.745-0.208,1.009-0.418
		c0.197-0.28,0.37-0.583,0.384-1.045c-0.06-0.662-0.396-1.042-0.871-1.289c-0.227-0.064-0.497-0.083-0.802-0.071
		C14.185,12.635,14.166,12.65,14.122,12.643z"/>
</g>
<g>
	<path d="M7.961,9.713c2.849-0.003,4.201,1.489,4.63,3.905c-0.029,2.938-1.506,4.439-4.212,4.705
		c-2.555-0.214-3.893-1.638-4.218-4.081c0.084-2.657,1.416-4.064,3.729-4.496C7.93,9.756,7.952,9.74,7.961,9.713z M9.527,10.725
		c-0.336-0.114-0.721-0.184-1.147-0.209c-0.775,0.028-1.329,0.271-1.849,0.557c-0.362,0.288-0.688,0.616-0.973,0.977
		c-1.232,1.776-0.247,4.558,1.359,5.089c1.716,0.945,3.913-0.164,4.495-1.505c0.199-0.484,0.379-0.992,0.383-1.669
		c-0.125-1.653-0.906-2.646-2.161-3.17c-0.003-0.021-0.006-0.042-0.037-0.034C9.56,10.76,9.554,10.73,9.527,10.725z"/>
	<path d="M6.844,12.71c0.305-0.013,0.575,0.007,0.8,0.071c0.475,0.247,0.813,0.626,0.873,1.288
		c-0.014,0.462-0.189,0.766-0.384,1.045c-0.264,0.21-0.556,0.4-1.009,0.418c-0.774-0.063-1.169-0.504-1.36-1.149
		c-0.053-0.609,0.133-0.981,0.385-1.288c0.184-0.141,0.365-0.284,0.624-0.351C6.817,12.752,6.835,12.737,6.844,12.71z"/>
	<path fill="#FFFFFF" d="M9.597,10.76c0.03-0.007,0.033,0.011,0.036,0.032c1.255,0.526,2.037,1.52,2.162,3.172
		c-0.008,0.677-0.188,1.184-0.381,1.669c-0.586,1.34-2.784,2.451-4.5,1.501c-1.604-0.528-2.589-3.311-1.358-5.087
		c0.286-0.364,0.612-0.687,0.975-0.975c0.521-0.286,1.071-0.529,1.847-0.557c0.429,0.023,0.813,0.095,1.149,0.208
		C9.554,10.73,9.56,10.76,9.597,10.76z M6.773,12.744c-0.257,0.066-0.441,0.208-0.624,0.351c-0.252,0.305-0.438,0.678-0.385,1.288
		c0.191,0.646,0.588,1.086,1.36,1.149c0.455-0.019,0.745-0.208,1.009-0.418c0.197-0.28,0.37-0.583,0.384-1.045
		c-0.06-0.662-0.396-1.042-0.871-1.289c-0.227-0.064-0.497-0.083-0.802-0.071C6.835,12.737,6.817,12.752,6.773,12.744z"/>
</g>
<g>
	<path d="M7.704,22.12c1.751-0.265,4.597-0.049,6.622-0.049c0.755,0,1.481-0.091,2.045,0.098c2.372,0.799,1.955,4.426,0.194,5.209
		c-1.013,0.449-3.134,0.195-4.625,0.195c-0.889,0-1.709,0-2.435,0c-0.879,0-1.771,0.048-2.337-0.195
		c-0.571-0.247-1.104-0.853-1.313-1.363C5.143,24.276,6.168,22.352,7.704,22.12z M7.947,22.754c-0.547,1.679,2.644,1.688,2.093,0
		C9.342,22.754,8.645,22.754,7.947,22.754z M13.642,22.754c-0.524,1.711,2.653,1.647,2.143,0
		C15.073,22.754,14.356,22.754,13.642,22.754z M7.704,26.842c0.568,0,1.136,0,1.704,0C9.823,25.55,7.288,25.55,7.704,26.842z
		 M9.895,26.842c0.567,0,1.136,0,1.704,0C12.015,25.55,9.478,25.55,9.895,26.842z M12.085,26.842c0.567,0,1.137,0,1.701,0
		C14.204,25.55,11.669,25.55,12.085,26.842z M14.277,26.842c0.568,0,1.136,0,1.703,0C16.396,25.55,13.859,25.55,14.277,26.842z"/>
	<path fill="#FFFFFF" d="M10.041,22.754c0.551,1.688-2.641,1.679-2.093,0C8.645,22.754,9.342,22.754,10.041,22.754z"/>
	<path fill="#FFFFFF" d="M15.784,22.754c0.511,1.647-2.668,1.711-2.143,0C14.356,22.754,15.073,22.754,15.784,22.754z"/>
	<path fill="#FFFFFF" d="M9.408,26.842c-0.567,0-1.135,0-1.704,0C7.288,25.55,9.823,25.55,9.408,26.842z"/>
	<path fill="#FFFFFF" d="M11.599,26.842c-0.567,0-1.135,0-1.703,0C9.478,25.55,12.015,25.55,11.599,26.842z"/>
	<path fill="#FFFFFF" d="M13.786,26.842c-0.565,0-1.134,0-1.701,0C11.669,25.55,14.204,25.55,13.786,26.842z"/>
	<path fill="#FFFFFF" d="M15.98,26.842c-0.567,0-1.135,0-1.703,0C13.859,25.55,16.396,25.55,15.98,26.842z"/>
</g>
</svg>
