<?xml version="1.0" encoding="utf-8"?>
<!-- Generator: Adobe Illustrator 15.0.0, SVG Export Plug-In . SVG Version: 6.00 Build 0)  -->
<!DOCTYPE svg PUBLIC "-//W3C//DTD SVG 1.1//EN" "http://www.w3.org/Graphics/SVG/1.1/DTD/svg11.dtd">
<svg version="1.1" id="Layer_1" xmlns="http://www.w3.org/2000/svg" xmlns:xlink="http://www.w3.org/1999/xlink" x="0px" y="0px"
	 width="29.625px" height="30.075px" viewBox="0 0 29.625 30.075" enable-background="new 0 0 29.625 30.075" xml:space="preserve">
<g id="Layer_2">
</g>
<g>
	<path fill="#658937" d="M14.715,29.542c8.105,0,14.717-6.609,14.717-14.715c0-8.104-6.611-14.715-14.717-14.715
		C6.609,0.111,0,6.721,0,14.826S6.609,29.542,14.715,29.542z"/>
	<path fill="#8BC34A" d="M14.715,0.111c7.799,0,14.178,6.066,14.682,13.736c-0.504,7.67-6.883,13.735-14.682,13.735
		c-7.798,0-14.178-6.065-14.682-13.735C0.537,6.177,6.917,0.111,14.715,0.111z"/>
</g>
<g>
	<path fill="#FFFFFF" d="M8.958,14.947c2.649,0,4.811-2.162,4.811-4.812c0-2.651-2.162-4.812-4.811-4.812
		c-2.65,0-4.812,2.162-4.812,4.812C4.146,12.785,6.308,14.947,8.958,14.947z"/>
	<g>
		<path fill="#1A1A1A" d="M8.958,6.837c-1.815,0-3.297,1.481-3.297,3.297c0,1.816,1.482,3.296,3.297,3.296
			c1.816,0,3.295-1.48,3.295-3.296C12.253,8.318,10.774,6.837,8.958,6.837z"/>
		<circle fill="#FFFFFF" cx="10.996" cy="8.193" r="1.104"/>
	</g>
</g>
<g>
	<path fill="#FFFFFF" d="M21.391,14.947c2.647,0,4.812-2.161,4.812-4.812c0-2.651-2.163-4.812-4.812-4.812
		c-2.65,0-4.812,2.162-4.812,4.812C16.577,12.785,18.738,14.947,21.391,14.947z"/>
	<g>
		<path fill="#1A1A1A" d="M21.391,6.838c-1.816,0-3.299,1.481-3.299,3.297c0,1.816,1.48,3.296,3.299,3.296
			c1.814,0,3.295-1.48,3.295-3.296C24.686,8.319,23.206,6.838,21.391,6.838z"/>
		<circle fill="#FFFFFF" cx="23.428" cy="8.194" r="1.104"/>
	</g>
</g>
</svg>
